<svg xmlns="http://www.w3.org/2000/svg" version="1.1" xmlns:xlink="http://www.w3.org/1999/xlink" xmlns:svgjs="http://svgjs.dev/svgjs" width="32" height="32"><svg width="32" height="32" viewBox="0 0 32 32" fill="none" xmlns="http://www.w3.org/2000/svg">
  <rect x="0" y="4" width="32" height="24" fill="#2563EB" rx="4"></rect>
  <path d="M4 7C3 7 2.5 8 2.5 9V12.5C2.5 13.5 2 15 1 16H0V16.5H1C2 17.5 2.5 18.5 2.5 19.5V23C2.5 24 3 25 4 25" stroke="white" stroke-width="1.5"></path>
  <path fill-rule="evenodd" clip-rule="evenodd" d="M16 6.25C16.4142 6.25 16.75 6.58579 16.75 7V7.75565C18.8183 7.78685 20.8558 7.94691 22.8546 8.22821C23.8808 8.37264 24.8968 8.54903 25.9016 8.75635C26.2784 8.83409 26.5352 9.18431 26.4962 9.56704C26.4571 9.94977 26.1348 10.2409 25.75 10.2409H23.8324L26.306 20.3654C26.3872 20.6979 26.2331 21.0431 25.9313 21.2046C24.9827 21.7124 23.8988 22 22.75 22C21.6012 22 20.5174 21.7124 19.5688 21.2046C19.267 21.0431 19.1129 20.6979 19.1941 20.3654L21.6677 10.2409H16.75V23.5217C18.0425 23.5968 19.2843 23.8645 20.4466 24.2971C20.7867 24.4237 20.9874 24.7757 20.9231 25.1329C20.8588 25.4901 20.5479 25.75 20.185 25.75H11.8146C11.4517 25.75 11.1408 25.4901 11.0765 25.1329C11.0122 24.7757 11.2129 24.4237 11.5531 24.2971C12.7154 23.8645 13.9574 23.5967 15.25 23.5217V10.2409H10.3324L12.806 20.3654C12.8872 20.6979 12.7331 21.0431 12.4313 21.2046C11.4827 21.7124 10.3988 22 9.25 22C8.1012 22 7.01738 21.7124 6.06875 21.2046C5.76702 21.0431 5.61288 20.6979 5.69411 20.3654L8.1677 10.2409H6.25004C5.86532 10.2409 5.54299 9.94977 5.50392 9.56704C5.46485 9.18431 5.7217 8.83409 6.09849 8.75635C7.10325 8.54903 8.1193 8.37264 9.1455 8.22821C11.1443 7.94691 13.1817 7.78686 15.25 7.75565V7C15.25 6.58579 15.5858 6.25 16 6.25ZM20.878 19.7934L22.75 12.131L24.6221 19.7934H20.878ZM11.1221 19.7934L9.25 12.131L7.37797 19.7934H11.1221Z" fill="white"></path>
  <path d="M28 7C29 7 29.5 8 29.5 9V12.5C29.5 13.5 30 15 31 16H32V16.5H31C30 17.5 29.5 18.5 29.5 19.5V23C29.5 24 29 25 28 25" stroke="white" stroke-width="1.5"></path>
</svg><style>@media (prefers-color-scheme: light) { :root { filter: none; } }
@media (prefers-color-scheme: dark) { :root { filter: none; } }
</style></svg>